<svg data-v-423bf9ae="" xmlns="http://www.w3.org/2000/svg" viewBox="0 0 592 90" class="iconLeftSlogan"><!----><!----><!---->
    <g data-v-423bf9ae="" id="6da944c2-5324-433f-b5ef-b28a84e556f7" fill="#ffffff" transform="matrix(5.439709543503888,0,0,5.439709543503888,87.60799601404611,2.1214871340923693)">
        <path d="M7.66 7.78C7.66 6.55 6.99 5.56 5.46 5.38C6.61 5.07 7.10 4.27 7.10 3.22C7.10 1.58 5.85 0.90 3.74 0.90L1.19 0.90L1.19 10.50L4.14 10.50C6.45 10.50 7.66 9.53 7.66 7.78ZM6.45 7.60C6.45 9.10 5.52 9.53 3.99 9.53L2.38 9.53L2.38 5.95L3.85 5.95C5.56 5.95 6.45 6.47 6.45 7.60ZM5.89 3.36C5.89 4.35 5.29 5.01 3.77 5.01L2.38 5.01L2.38 1.86L3.77 1.86C5.15 1.86 5.89 2.31 5.89 3.36ZM16.07 9.73L15.41 9.73C15.11 9.73 14.98 9.60 14.98 9.23L14.98 5.50C14.98 3.85 14.03 3.00 12.31 3.00C10.39 3.00 9.69 3.88 9.51 4.97L10.63 5.10C10.78 4.19 11.31 3.86 12.25 3.86C13.30 3.86 13.87 4.35 13.87 5.46L13.87 6.06L12.49 6.06C10.35 6.06 9.17 6.69 9.17 8.43C9.17 9.60 9.91 10.64 11.51 10.64C12.60 10.64 13.54 10.28 13.92 9.09L13.92 9.45C13.92 10.22 14.39 10.64 15.12 10.64C15.51 10.64 15.81 10.63 16.07 10.60ZM11.77 9.80C10.77 9.80 10.29 9.16 10.29 8.36C10.29 7.18 11.19 6.85 12.47 6.85L13.87 6.85L13.87 7.38C13.87 8.53 13.44 9.80 11.77 9.80ZM20.36 10.64C22.11 10.64 23.00 9.51 23.17 8.32L22.04 8.23C21.88 9.23 21.25 9.73 20.33 9.73C18.86 9.73 18.38 8.51 18.38 6.76C18.38 4.82 18.90 3.89 20.31 3.89C21.29 3.89 21.83 4.41 21.97 5.25L23.13 5.18C22.89 3.93 21.99 3.00 20.34 3.00C18.75 3.00 17.19 3.88 17.19 6.79C17.19 8.97 18.05 10.64 20.36 10.64ZM26.17 3.16L26.17-0.39L25.03-0.39L25.03 10.50L26.17 10.50L26.17 6.24C26.17 4.69 26.96 3.86 28.15 3.86C29.40 3.86 29.72 4.49 29.72 5.80L29.72 10.50L30.86 10.50L30.86 5.57C30.86 4.16 30.41 3.00 28.46 3.00C27.23 3.00 26.50 3.50 26.12 4.45C26.15 4.07 26.17 3.61 26.17 3.16ZM35.91 10.64C37.83 10.64 38.43 9.73 38.77 8.90L37.80 8.62C37.53 9.34 37.11 9.79 35.94 9.79C34.43 9.79 33.88 8.64 33.88 7.06L33.88 7.04L38.92 7.04C38.93 6.89 38.95 6.66 38.95 6.52C38.95 4.59 38.33 3.00 35.88 3.00C34.05 3.00 32.68 4.09 32.68 6.76C32.68 9.30 33.74 10.64 35.91 10.64ZM35.88 3.84C37.14 3.84 37.76 4.54 37.76 6.08L37.76 6.17L33.88 6.17C33.96 4.34 34.90 3.84 35.88 3.84ZM40.88 10.50L42.01 10.50L42.01-0.39L40.88-0.39ZM49.22 6.73C49.22 9.02 48.41 9.80 47.14 9.80C46.02 9.80 45.07 9.00 45.07 6.73C45.07 4.54 45.88 3.84 47.15 3.84C48.47 3.84 49.22 4.59 49.22 6.73ZM50.41 6.79C50.41 4.24 49.34 3.00 47.17 3.00C45.09 3.00 43.88 4.21 43.88 6.76C43.88 9.46 45.19 10.64 47.08 10.64C49.17 10.64 50.41 9.42 50.41 6.79ZM55.69 4.07L55.69 3.02C55.48 3.01 55.37 3.01 55.30 3.01C54.26 3.01 53.62 3.61 53.41 4.59L53.35 3.14L52.28 3.14L52.32 4.84L52.32 10.50L53.45 10.50L53.45 6.13C53.45 5.14 53.96 4.06 55.20 4.06C55.34 4.06 55.48 4.06 55.69 4.07ZM63.64 9.73L62.99 9.73C62.68 9.73 62.55 9.60 62.55 9.23L62.55 5.50C62.55 3.85 61.60 3.00 59.88 3.00C57.96 3.00 57.26 3.88 57.08 4.97L58.20 5.10C58.35 4.19 58.88 3.86 59.82 3.86C60.87 3.86 61.45 4.35 61.45 5.46L61.45 6.06L60.06 6.06C57.92 6.06 56.74 6.69 56.74 8.43C56.74 9.60 57.48 10.64 59.08 10.64C60.17 10.64 61.11 10.28 61.49 9.09L61.49 9.45C61.49 10.22 61.96 10.64 62.69 10.64C63.08 10.64 63.38 10.63 63.64 10.60ZM59.35 9.80C58.34 9.80 57.86 9.16 57.86 8.36C57.86 7.18 58.76 6.85 60.05 6.85L61.45 6.85L61.45 7.38C61.45 8.53 61.01 9.80 59.35 9.80ZM68.64 4.07L68.64 3.02C68.43 3.01 68.32 3.01 68.25 3.01C67.21 3.01 66.57 3.61 66.36 4.59L66.30 3.14L65.23 3.14L65.27 4.84L65.27 10.50L66.40 10.50L66.40 6.13C66.40 5.14 66.91 4.06 68.15 4.06C68.29 4.06 68.43 4.06 68.64 4.07ZM76.51 6.76C76.51 4.21 75.63 3.00 73.71 3.00C72.70 3.00 71.86 3.40 71.43 4.28C71.44 4.02 71.46 3.77 71.46 3.58L71.46-0.39L70.32-0.39L70.32 8.99C70.32 9.55 70.31 10.09 70.29 10.50L71.39 10.50C71.41 10.05 71.43 9.72 71.44 9.27C71.81 10.28 72.74 10.64 73.63 10.64C75.59 10.64 76.51 9.37 76.51 6.76ZM75.33 6.80C75.33 8.99 74.72 9.80 73.47 9.80C72.17 9.80 71.46 9.00 71.46 6.87C71.46 4.68 72.16 3.88 73.50 3.88C74.77 3.88 75.33 4.72 75.33 6.80ZM81.14 10.64C83.06 10.64 83.66 9.73 84 8.90L83.03 8.62C82.77 9.34 82.35 9.79 81.17 9.79C79.66 9.79 79.11 8.64 79.11 7.06L79.11 7.04L84.15 7.04C84.17 6.89 84.18 6.66 84.18 6.52C84.18 4.59 83.57 3.00 81.12 3.00C79.28 3.00 77.91 4.09 77.91 6.76C77.91 9.30 78.97 10.64 81.14 10.64ZM81.12 3.84C82.38 3.84 82.99 4.54 82.99 6.08L82.99 6.17L79.11 6.17C79.20 4.34 80.14 3.84 81.12 3.84ZM86.17 10.50L87.29 10.50L87.29 3.14L86.17 3.14ZM86.11 1.61L87.35 1.61L87.35 0.35L86.11 0.35ZM89.07 3.99L89.95 3.99L89.95 9.20C89.95 10.01 90.41 10.63 91.22 10.63L92.60 10.63L92.60 9.67L91.78 9.67C91.24 9.67 91.08 9.42 91.08 8.96L91.08 3.99L92.47 3.99L92.47 3.14L91.08 3.14L91.08 0.99L89.95 0.99L89.95 3.14L89.07 3.14Z"></path></g><!----><g data-v-423bf9ae="" id="a486205d-fcf5-45e2-b195-d5d82112f191" transform="matrix(2.8125,0,0,2.8125,-7.170000076293945,0)" stroke="none" fill="#21C7D4">
        <path d="M2.83 18.247l26.34-9.124L2.83 0zM29.17 32V13.753L2.83 22.877z"></path>
    </g><!---->
    <g data-v-423bf9ae="" id="d78c82b1-435f-4d22-b5af-197c229ed672" fill="#ffffff" transform="matrix(1.7737329188900033,0,0,1.7737329188900033,92.27204733190757,60.92519595933483)">
        <path d="M3.37 5.88L6.20 15.18L6.37 15.18L6.37 5.88L7.55 5.88L7.55 15.68L5.19 15.68L2.37 6.38L2.20 6.38L2.20 15.68L1.02 15.68L1.02 5.88L3.37 5.88ZM16.74 6.97L16.74 5.88L22.96 5.88L22.96 6.97L20.44 6.97L20.44 14.59L22.96 14.59L22.96 15.68L16.74 15.68L16.74 14.59L19.26 14.59L19.26 6.97L16.74 6.97ZM33.56 11.31L33.56 15.68L32.38 15.68L32.38 5.88L33.56 5.88L33.56 10.22L33.88 10.22L37.65 5.88L39.10 5.88L39.10 5.96L35.04 10.70L35.04 10.86L39.27 15.60L39.27 15.68L37.79 15.68L33.88 11.31L33.56 11.31ZM47.92 15.68L47.92 5.88L49.10 5.88L49.10 14.59L54.22 14.59L54.22 15.68L47.92 15.68ZM69.37 15.68L68.66 13.24L64.46 13.24L63.74 15.68L62.48 15.68L65.45 5.88L67.66 5.88L70.63 15.68L69.37 15.68ZM66.64 6.38L66.47 6.38L64.78 12.15L68.33 12.15L66.64 6.38ZM84.43 9.21L84.43 8.71L84.43 8.71Q84.43 8.23 84.25 7.87L84.25 7.87L84.25 7.87Q84.06 7.50 83.73 7.27L83.73 7.27L83.73 7.27Q83.41 7.03 82.99 6.90L82.99 6.90L82.99 6.90Q82.57 6.78 82.11 6.78L82.11 6.78L82.11 6.78Q81.70 6.78 81.34 6.88L81.34 6.88L81.34 6.88Q80.98 6.99 80.69 7.18L80.69 7.18L80.69 7.18Q80.40 7.38 80.23 7.66L80.23 7.66L80.23 7.66Q80.07 7.95 80.07 8.33L80.07 8.33L80.07 8.41L80.07 8.41Q80.07 8.82 80.23 9.11L80.23 9.11L80.23 9.11Q80.40 9.39 80.73 9.60L80.73 9.60L80.73 9.60Q81.06 9.80 81.55 9.93L81.55 9.93L81.55 9.93Q82.04 10.07 82.70 10.16L82.70 10.16L82.70 10.16Q84.24 10.40 84.97 11.07L84.97 11.07L84.97 11.07Q85.69 11.73 85.69 12.85L85.69 12.85L85.69 13.02L85.69 13.02Q85.69 13.65 85.48 14.17L85.48 14.17L85.48 14.17Q85.26 14.70 84.83 15.08L84.83 15.08L84.83 15.08Q84.41 15.46 83.78 15.67L83.78 15.67L83.78 15.67Q83.15 15.88 82.32 15.88L82.32 15.88L82.32 15.88Q81.38 15.88 80.66 15.60L80.66 15.60L80.66 15.60Q79.94 15.33 79.46 14.85L79.46 14.85L79.46 14.85Q78.97 14.36 78.72 13.71L78.72 13.71L78.72 13.71Q78.47 13.06 78.47 12.29L78.47 12.29L78.47 11.87L79.65 11.87L79.65 12.21L79.65 12.21Q79.65 13.50 80.35 14.14L80.35 14.14L80.35 14.14Q81.06 14.78 82.32 14.78L82.32 14.78L82.32 14.78Q83.41 14.78 83.97 14.30L83.97 14.30L83.97 14.30Q84.52 13.82 84.52 13.02L84.52 13.02L84.52 12.94L84.52 12.94Q84.52 12.17 83.95 11.76L83.95 11.76L83.95 11.76Q83.38 11.35 82.11 11.17L82.11 11.17L82.11 11.17Q81.37 11.07 80.77 10.87L80.77 10.87L80.77 10.87Q80.18 10.67 79.76 10.34L79.76 10.34L79.76 10.34Q79.34 10.01 79.11 9.55L79.11 9.55L79.11 9.55Q78.89 9.09 78.89 8.46L78.89 8.46L78.89 8.29L78.89 8.29Q78.89 7.71 79.13 7.24L79.13 7.24L79.13 7.24Q79.37 6.76 79.79 6.41L79.79 6.41L79.79 6.41Q80.22 6.06 80.81 5.87L80.81 5.87L80.81 5.87Q81.41 5.68 82.12 5.68L82.12 5.68L82.12 5.68Q82.95 5.68 83.60 5.92L83.60 5.92L83.60 5.92Q84.25 6.16 84.70 6.56L84.70 6.56L84.70 6.56Q85.15 6.96 85.38 7.50L85.38 7.50L85.38 7.50Q85.61 8.04 85.61 8.62L85.61 8.62L85.61 9.21L84.43 9.21ZM115.57 9.21L115.57 8.71L115.57 8.71Q115.57 8.23 115.38 7.87L115.38 7.87L115.38 7.87Q115.19 7.50 114.87 7.27L114.87 7.27L114.87 7.27Q114.55 7.03 114.13 6.90L114.13 6.90L114.13 6.90Q113.71 6.78 113.25 6.78L113.25 6.78L113.25 6.78Q112.84 6.78 112.48 6.88L112.48 6.88L112.48 6.88Q112.11 6.99 111.83 7.18L111.83 7.18L111.83 7.18Q111.54 7.38 111.37 7.66L111.37 7.66L111.37 7.66Q111.20 7.95 111.20 8.33L111.20 8.33L111.20 8.41L111.20 8.41Q111.20 8.82 111.37 9.11L111.37 9.11L111.37 9.11Q111.54 9.39 111.87 9.60L111.87 9.60L111.87 9.60Q112.20 9.80 112.69 9.93L112.69 9.93L112.69 9.93Q113.18 10.07 113.83 10.16L113.83 10.16L113.83 10.16Q115.37 10.40 116.10 11.07L116.10 11.07L116.10 11.07Q116.83 11.73 116.83 12.85L116.83 12.85L116.83 13.02L116.83 13.02Q116.83 13.65 116.61 14.17L116.61 14.17L116.61 14.17Q116.40 14.70 115.97 15.08L115.97 15.08L115.97 15.08Q115.54 15.46 114.91 15.67L114.91 15.67L114.91 15.67Q114.28 15.88 113.46 15.88L113.46 15.88L113.46 15.88Q112.52 15.88 111.80 15.60L111.80 15.60L111.80 15.60Q111.08 15.33 110.59 14.85L110.59 14.85L110.59 14.85Q110.11 14.36 109.86 13.71L109.86 13.71L109.86 13.71Q109.61 13.06 109.61 12.29L109.61 12.29L109.61 11.87L110.78 11.87L110.78 12.21L110.78 12.21Q110.78 13.50 111.49 14.14L111.49 14.14L111.49 14.14Q112.20 14.78 113.46 14.78L113.46 14.78L113.46 14.78Q114.55 14.78 115.10 14.30L115.10 14.30L115.10 14.30Q115.65 13.82 115.65 13.02L115.65 13.02L115.65 12.94L115.65 12.94Q115.65 12.17 115.09 11.76L115.09 11.76L115.09 11.76Q114.52 11.35 113.25 11.17L113.25 11.17L113.25 11.17Q112.50 11.07 111.91 10.87L111.91 10.87L111.91 10.87Q111.31 10.67 110.89 10.34L110.89 10.34L110.89 10.34Q110.47 10.01 110.25 9.55L110.25 9.55L110.25 9.55Q110.03 9.09 110.03 8.46L110.03 8.46L110.03 8.29L110.03 8.29Q110.03 7.71 110.26 7.24L110.26 7.24L110.26 7.24Q110.50 6.76 110.93 6.41L110.93 6.41L110.93 6.41Q111.36 6.06 111.95 5.87L111.95 5.87L111.95 5.87Q112.55 5.68 113.26 5.68L113.26 5.68L113.26 5.68Q114.09 5.68 114.74 5.92L114.74 5.92L114.74 5.92Q115.39 6.16 115.84 6.56L115.84 6.56L115.84 6.56Q116.28 6.96 116.52 7.50L116.52 7.50L116.52 7.50Q116.75 8.04 116.75 8.62L116.75 8.62L116.75 9.21L115.57 9.21ZM128.88 14.78L128.88 14.78L128.88 14.78Q129.49 14.78 129.91 14.58L129.91 14.58L129.91 14.58Q130.34 14.38 130.61 14.04L130.61 14.04L130.61 14.04Q130.89 13.69 131.02 13.25L131.02 13.25L131.02 13.25Q131.15 12.81 131.15 12.32L131.15 12.32L131.15 12.15L132.33 12.15L132.33 12.32L132.33 12.32Q132.33 13.06 132.10 13.71L132.10 13.71L132.10 13.71Q131.88 14.36 131.45 14.85L131.45 14.85L131.45 14.85Q131.01 15.33 130.37 15.60L130.37 15.60L130.37 15.60Q129.72 15.88 128.88 15.88L128.88 15.88L128.88 15.88Q127.26 15.88 126.35 14.85L126.35 14.85L126.35 14.85Q125.44 13.83 125.44 11.87L125.44 11.87L125.44 9.69L125.44 9.69Q125.44 7.78 126.35 6.73L126.35 6.73L126.35 6.73Q127.26 5.68 128.88 5.68L128.88 5.68L128.88 5.68Q129.72 5.68 130.37 5.96L130.37 5.96L130.37 5.96Q131.01 6.23 131.45 6.71L131.45 6.71L131.45 6.71Q131.88 7.20 132.10 7.85L132.10 7.85L132.10 7.85Q132.33 8.50 132.33 9.24L132.33 9.24L132.33 9.41L131.15 9.41L131.15 9.24L131.15 9.24Q131.14 8.76 131.00 8.32L131.00 8.32L131.00 8.32Q130.87 7.87 130.60 7.53L130.60 7.53L130.60 7.53Q130.33 7.18 129.91 6.98L129.91 6.98L129.91 6.98Q129.49 6.78 128.88 6.78L128.88 6.78L128.88 6.78Q127.75 6.78 127.18 7.60L127.18 7.60L127.18 7.60Q126.62 8.43 126.62 9.77L126.62 9.77L126.62 11.79L126.62 11.79Q126.62 13.23 127.18 14.01L127.18 14.01L127.18 14.01Q127.75 14.78 128.88 14.78ZM141.13 15.68L141.13 5.88L142.31 5.88L142.31 10.22L146.48 10.22L146.48 5.88L147.66 5.88L147.66 15.68L146.48 15.68L146.48 11.31L142.31 11.31L142.31 15.68L141.13 15.68ZM156.32 15.68L156.32 5.88L158.56 5.88L159.88 15.18L160.05 15.18L161.36 5.88L163.60 5.88L163.60 15.68L162.51 15.68L162.51 6.38L162.34 6.38L161.03 15.68L158.90 15.68L157.58 6.38L157.42 6.38L157.42 15.68L156.32 15.68ZM172.09 11.87L172.09 9.69L172.09 9.69Q172.09 7.78 173.00 6.73L173.00 6.73L173.00 6.73Q173.91 5.68 175.53 5.68L175.53 5.68L175.53 5.68Q177.16 5.68 178.07 6.73L178.07 6.73L178.07 6.73Q178.98 7.78 178.98 9.69L178.98 9.69L178.98 11.87L178.98 11.87Q178.98 13.83 178.07 14.85L178.07 14.85L178.07 14.85Q177.16 15.88 175.53 15.88L175.53 15.88L175.53 15.88Q173.91 15.88 173.00 14.85L173.00 14.85L173.00 14.85Q172.09 13.83 172.09 11.87L172.09 11.87ZM175.53 14.78L175.53 14.78L175.53 14.78Q176.67 14.78 177.23 14.01L177.23 14.01L177.23 14.01Q177.80 13.23 177.80 11.79L177.80 11.79L177.80 9.77L177.80 9.77Q177.80 8.43 177.23 7.60L177.23 7.60L177.23 7.60Q176.67 6.78 175.53 6.78L175.53 6.78L175.53 6.78Q174.40 6.78 173.83 7.60L173.83 7.60L173.83 7.60Q173.26 8.43 173.26 9.77L173.26 9.77L173.26 11.79L173.26 11.79Q173.26 13.23 173.83 14.01L173.83 14.01L173.83 14.01Q174.40 14.78 175.53 14.78ZM188.03 15.68L188.03 5.88L189.21 5.88L189.21 14.59L194.33 14.59L194.33 15.68L188.03 15.68ZM204.81 11.31L204.81 15.68L203.63 15.68L203.63 5.88L204.81 5.88L204.81 10.22L205.13 10.22L208.89 5.88L210.35 5.88L210.35 5.96L206.29 10.70L206.29 10.86L210.52 15.60L210.52 15.68L209.03 15.68L205.13 11.31L204.81 11.31ZM219.27 15.68L219.27 5.88L225.20 5.88L225.20 6.97L220.44 6.97L220.44 10.22L225.12 10.22L225.12 11.31L220.44 11.31L220.44 14.59L225.29 14.59L225.29 15.68L219.27 15.68Z"></path>
    </g>
</svg>
